HIERARCHY
ROOT Hips
{
	OFFSET 0.000000 0.000000 0.000000
	CHANNELS 6 Xposition Yposition Zposition Zrotation Yrotation Xrotation 
	JOINT LHipJoint
	{
		OFFSET 0.000000 0.000000 0.000000
		CHANNELS 3 Zrotation Yrotation Xrotation
		JOINT LeftUpLeg
		{
			OFFSET 1.363060 -1.794630 0.839290
			CHANNELS 3 Zrotation Yrotation Xrotation
			JOINT LeftLeg
			{
				OFFSET 2.448110 -6.726130 0.000000
				CHANNELS 3 Zrotation Yrotation Xrotation
				JOINT LeftFoot
				{
					OFFSET 2.562200 -7.039590 0.000000
					CHANNELS 3 Zrotation Yrotation Xrotation
					JOINT LeftToeBase
					{
						OFFSET 0.157640 -0.433110 2.322550
						CHANNELS 3 Zrotation Yrotation Xrotation
						End Site
						{
							OFFSET 0.000000 0.000000 0.000000
						}
					}
				}
			}
		}
	}
	JOINT RHipJoint
	{
		OFFSET 0.000000 0.000000 0.000000
		CHANNELS 3 Zrotation Yrotation Xrotation
		JOINT RightUpLeg
		{
			OFFSET -1.305520 -1.794630 0.839290
			CHANNELS 3 Zrotation Yrotation Xrotation
			JOINT RightLeg
			{
				OFFSET -2.542530 -6.985550 0.000000
				CHANNELS 3 Zrotation Yrotation Xrotation
				JOINT RightFoot
				{
					OFFSET -2.568260 -7.056230 0.000000
					CHANNELS 3 Zrotation Yrotation Xrotation
					JOINT RightToeBase
					{
						OFFSET -0.164730 -0.452590 2.363150
						CHANNELS 3 Zrotation Yrotation Xrotation
						End Site
						{
							OFFSET 0.000000 0.000000 0.000000
						}
					}
				}
			}
		}
	}
	JOINT LowerBack
	{
		OFFSET 0.000000 0.000000 0.000000
		CHANNELS 3 Zrotation Yrotation Xrotation
		JOINT Spine
		{
			OFFSET 0.028270 2.035590 -0.193380
			CHANNELS 3 Zrotation Yrotation Xrotation
			JOINT Spine1
			{
				OFFSET 0.056720 2.048850 -0.042750
				CHANNELS 3 Zrotation Yrotation Xrotation
				JOINT Neck
				{
					OFFSET 0.000000 0.000000 0.000000
					CHANNELS 3 Zrotation Yrotation Xrotation
					JOINT Neck1
					{
						OFFSET -0.054170 1.746240 0.172020
						CHANNELS 3 Zrotation Yrotation Xrotation
						JOINT Head
						{
							OFFSET 0.104070 1.761360 -0.123970
							CHANNELS 3 Zrotation Yrotation Xrotation
							End Site
							{
								OFFSET 0.000000 0.000000 0.000000
							}
						}
					}
				}
				JOINT LeftShoulder
				{
					OFFSET 0.000000 0.000000 0.000000
					CHANNELS 3 Zrotation Yrotation Xrotation
					JOINT LeftArm
					{
						OFFSET 3.362410 1.200890 -0.311210
						CHANNELS 3 Zrotation Yrotation Xrotation
						JOINT LeftForeArm
						{
							OFFSET 4.983000 -0.000000 -0.000000
							CHANNELS 3 Zrotation Yrotation Xrotation
							JOINT LeftHand
							{
								OFFSET 3.483560 -0.000000 -0.000000
								CHANNELS 3 Zrotation Yrotation Xrotation
								JOINT LeftFingerBase
								{
									OFFSET 0.000000 0.000000 0.000000
									CHANNELS 3 Zrotation Yrotation Xrotation
									JOINT LeftHandIndex1
									{
										OFFSET 0.715260 -0.000000 -0.000000
										CHANNELS 3 Zrotation Yrotation Xrotation
										End Site
										{
											OFFSET 0.000000 0.000000 0.000000
										}
									}
								}
								JOINT LThumb
								{
									OFFSET 0.000000 0.000000 0.000000
									CHANNELS 3 Zrotation Yrotation Xrotation
									End Site
									{
										OFFSET 0.000000 0.000000 0.000000
									}
								}
							}
						}
					}
				}
				JOINT RightShoulder
				{
					OFFSET 0.000000 0.000000 0.000000
					CHANNELS 3 Zrotation Yrotation Xrotation
					JOINT RightArm
					{
						OFFSET -3.136600 1.374050 -0.404650
						CHANNELS 3 Zrotation Yrotation Xrotation
						JOINT RightForeArm
						{
							OFFSET -5.241900 -0.000000 -0.000000
							CHANNELS 3 Zrotation Yrotation Xrotation
							JOINT RightHand
							{
								OFFSET -3.444170 -0.000000 -0.000000
								CHANNELS 3 Zrotation Yrotation Xrotation
								JOINT RightFingerBase
								{
									OFFSET 0.000000 0.000000 0.000000
									CHANNELS 3 Zrotation Yrotation Xrotation
									JOINT RightHandIndex1
									{
										OFFSET -0.622530 -0.000000 -0.000000
										CHANNELS 3 Zrotation Yrotation Xrotation
										End Site
										{
											OFFSET 0.000000 0.000000 0.000000
										}
									}
								}
								JOINT RThumb
								{
									OFFSET 0.000000 0.000000 0.000000
									CHANNELS 3 Zrotation Yrotation Xrotation
									End Site
									{
										OFFSET 0.000000 0.000000 0.000000
									}
								}
							}
						}
					}
				}
			}
		}
	}
}
MOTION
Frames: 9
Frame Time: 0.008333
1.958643 16.385782 12.768131 0.382150 -80.914047 91.854257 -0.892098 -7.258778 -4.685640 -18.228824 12.160589 -50.534721 8.563245 17.168174 45.378774 1.842164 16.535101 49.239194 0.001700 0.262800 0.722100 0.561605 5.210819 -1.125029 15.882022 9.744539 -45.789876 -4.855173 -18.645143 41.601261 -4.210664 -15.334869 51.047632 -3.938500 -12.078100 36.008900 3.151638 9.018772 -13.424139 -3.765161 17.484677 -6.773076 -22.374003 4.550887 -3.541024 16.750385 -8.604909 -10.490102 0.972910 -12.289766 -11.265787 -4.186100 -8.030200 -8.321200 17.058726 -3.260499 6.118740 41.965179 -59.096360 -31.231264 60.090580 -50.346620 -32.367471 -0.149270 -0.248973 -60.005539 37.505766 -2.926855 -2.260900 -7.125000 0.000000 0.000000 8.487000 26.271800 -3.893900 -14.311760 2.997101 1.882757 21.319146 16.107858 4.308579 -34.549926 38.410271 -20.670802 1.513867 2.257738 -35.414664 -23.708202 -6.699612 3.726000 7.125000 0.000000 0.000000 0.482600 -38.425900 0.078100 
1.933711 16.357929 12.772848 -0.004687 -80.914199 92.105360 -1.173062 -7.412333 -4.757160 -17.690907 11.840061 -50.074397 7.948277 16.829467 43.560428 1.940643 16.830490 49.632558 0.000100 0.066800 0.183700 0.902043 5.368775 -1.164517 15.658507 9.683345 -45.262954 -4.121329 -18.054130 39.476936 -4.340703 -15.755515 51.412005 -3.939400 -12.079300 36.012900 2.933801 8.928044 -13.626284 -3.806294 17.327476 -6.861338 -22.417300 4.251770 -4.280424 17.386852 -8.597808 -9.300752 0.953028 -12.129922 -11.586314 -4.261400 -8.018800 -8.783900 17.153289 -3.550492 5.695517 39.256954 -59.874403 -25.771530 63.926235 -51.177548 -35.433605 -0.079067 -0.180785 -61.378693 38.621604 -3.277479 -2.605800 -7.125000 0.000000 0.000000 9.209400 25.805800 -4.334900 -14.559406 3.101789 1.734171 25.399224 16.638342 7.477980 -38.158991 40.811880 -22.958603 1.368208 1.778170 -34.957370 -24.059798 -5.742396 3.120200 7.125000 0.000000 0.000000 0.456000 -37.059600 0.089100 
1.908667 16.327943 12.776891 -0.197237 -80.925906 92.176089 -1.476544 -7.577567 -4.836904 -17.115918 11.501724 -49.587937 7.348646 16.481612 41.747129 2.021995 17.232286 49.997703 0.000200 -0.098600 -0.270900 1.242671 5.522672 -1.210463 15.428091 9.588012 -44.727274 -3.392314 -17.422444 37.348427 -4.465962 -16.129695 51.742658 -3.933900 -12.071900 35.986800 2.563534 8.883974 -13.958471 -3.832584 17.240919 -6.935775 -22.335061 4.042000 -4.900977 18.031619 -8.641917 -8.158613 0.892270 -12.035646 -11.857528 -4.387200 -8.049100 -9.293500 17.284591 -3.732792 5.447495 37.769106 -60.749181 -21.469417 67.412143 -51.871039 -38.200945 -0.024016 -0.117192 -63.065524 39.643161 -3.705631 -3.035500 -7.125000 0.000000 0.000000 9.849300 25.221300 -4.780700 -14.803818 3.118905 1.571525 29.496483 16.760040 10.774651 -41.744013 43.055864 -25.299637 1.236154 1.360218 -34.303743 -24.402668 -4.731765 2.511600 7.125000 0.000000 0.000000 0.406200 -35.676900 0.093100 
1.883847 16.296272 12.779924 -0.257796 -80.965318 92.125290 -1.795299 -7.748166 -4.920344 -16.540461 11.169364 -49.098669 6.778901 16.131943 39.980548 2.069717 17.748134 50.294343 0.001300 -0.230700 -0.633800 1.581205 5.670476 -1.262349 15.179665 9.465404 -44.185579 -2.684346 -16.760907 35.242822 -4.580902 -16.482857 52.034316 -3.928100 -12.064100 35.959000 2.039326 8.874816 -14.415916 -3.845597 17.210614 -6.997527 -22.130607 3.917636 -5.411524 18.683806 -8.733811 -7.060743 0.795328 -12.001110 -12.079276 -4.555900 -8.114500 -9.844900 17.447258 -3.816100 5.372046 37.431690 -61.665717 -18.223294 70.691671 -52.471356 -40.768774 0.016293 -0.062268 -65.243837 40.534230 -4.235843 -3.568800 -7.125000 0.000000 0.000000 10.378100 24.491000 -5.224400 -15.045201 3.063832 1.393629 33.556664 16.496467 14.127391 -45.190899 45.103371 -27.579219 1.120636 0.995835 -33.486932 -24.770693 -3.676131 1.898600 7.125000 0.000000 0.000000 0.307200 -34.274500 0.080900 
1.859139 16.263254 12.782282 -0.187085 -81.015408 91.947930 -2.118656 -7.917961 -5.004120 -15.977422 10.859569 -48.622746 6.243656 15.785515 38.296024 2.089042 18.315880 50.520877 0.003300 -0.371100 -1.019700 1.915673 5.810081 -1.317771 14.938211 9.314019 -43.643787 -2.008174 -16.078636 33.186026 -4.686687 -16.814006 52.294402 -3.913500 -12.044400 35.889300 1.422024 8.880171 -14.975551 -3.845546 17.208690 -7.048331 -21.837283 3.870824 -5.786629 19.340957 -8.867180 -6.051159 0.672814 -12.010556 -12.252337 -4.753100 -8.202400 -10.420400 17.631185 -3.765831 5.552189 38.527498 -62.461969 -16.331643 73.845397 -53.014163 -43.207843 0.041186 -0.025016 -67.974051 41.288331 -4.745493 -4.097400 -7.125000 0.000000 0.000000 10.816400 23.778500 -5.634100 -15.284214 2.927247 1.177920 37.528332 15.904477 17.479407 -48.412124 46.937397 -29.693992 1.019293 0.675409 -32.626548 -25.146345 -2.532920 1.248700 7.125000 0.000000 0.000000 0.180400 -32.791800 0.054000 
1.834094 16.230011 12.783630 0.025258 -81.080376 91.621885 -2.442570 -8.081812 -5.081777 -15.453821 10.594945 -48.171335 5.749334 15.447244 36.724726 2.079146 18.900479 50.669729 0.007100 -0.543900 -1.494500 2.244564 5.937152 -1.374793 14.704297 9.134750 -43.096694 -1.374918 -15.386750 31.202184 -4.784635 -17.126638 52.532808 -3.889700 -12.012100 35.774800 0.739553 8.882118 -15.597693 -3.831707 17.212775 -7.090224 -21.477594 3.928777 -5.931726 19.974986 -9.031657 -5.274101 0.533919 -12.038247 -12.370169 -4.962900 -8.293400 -10.982400 17.823793 -3.434202 6.282593 42.503500 -63.025576 -17.347615 76.479807 -53.561957 -45.152157 0.043441 -0.007561 -71.312331 41.920246 -5.183102 -4.581000 -7.125000 0.000000 0.000000 11.187700 23.140400 -6.002400 -15.528862 2.633110 0.855011 41.386342 15.086240 20.770245 -51.298641 48.538110 -31.518511 0.932998 0.389930 -31.848956 -25.543585 -1.290616 0.547000 7.125000 0.000000 0.000000 0.021700 -31.203900 0.007300 
1.808151 16.196656 12.783967 0.335741 -81.140513 91.182030 -2.753009 -8.231141 -5.148878 -14.989244 10.406297 -47.756118 5.297605 15.118398 35.292604 2.059879 19.423788 50.773918 0.015300 -0.798100 -2.193300 2.572891 6.051001 -1.430186 14.494917 8.932290 -42.543282 -0.790865 -14.696916 29.317234 -4.880072 -17.400668 52.763063 -3.845200 -11.951500 35.560700 0.137074 8.846894 -16.164606 -3.804038 17.148110 -7.124296 -21.187497 3.983460 -6.015868 20.528342 -9.138817 -4.696720 0.397074 -12.009570 -12.430303 -5.165300 -8.343700 -11.423800 17.979575 -3.066317 7.053379 47.322127 -64.375959 -19.013109 77.763508 -53.975804 -45.794879 0.013613 0.032730 -74.217056 42.406597 -5.596706 -5.078200 -7.125000 0.000000 0.000000 11.434000 22.474900 -6.317800 -15.774112 2.312787 0.537708 45.140889 14.240740 23.960650 -53.745701 49.894661 -32.929198 0.862335 0.130472 -31.296850 -25.967361 0.044903 -0.213400 7.125000 0.000000 0.000000 -0.162700 -29.505900 -0.061500 
1.781197 16.164648 12.782619 0.731716 -81.193753 90.632500 -3.043921 -8.355445 -5.202736 -14.606600 10.313895 -47.388836 4.914766 14.813406 34.022427 2.005548 19.993811 50.811850 0.026900 -1.057800 -2.907900 2.899235 6.148428 -1.478765 14.310083 8.720822 -41.987263 -0.264697 -14.026209 27.559786 -4.972854 -17.643816 52.988934 -3.783400 -11.866400 35.261100 -0.371978 8.767516 -16.623241 -3.764893 16.995219 -7.153452 -20.985464 3.979080 -6.179291 20.985111 -9.140515 -4.248177 0.252113 -11.906387 -12.432390 -5.367100 -8.343600 -11.698300 18.087063 -2.856755 7.516613 51.337181 -66.699634 -19.492522 77.921035 -54.182634 -45.377444 -0.035896 0.095005 -76.407867 42.736965 -5.991527 -5.568800 -7.125000 0.000000 0.000000 11.548100 21.802800 -6.564300 -16.006990 2.064058 0.308869 48.775004 13.376941 27.045876 -55.693808 51.023662 -33.881378 0.805289 -0.105455 -31.079667 -26.415820 1.465491 -1.034000 7.125000 0.000000 0.000000 -0.362200 -27.705700 -0.152300 
1.753233 16.134774 12.780036 1.229459 -81.230827 89.951191 -3.311919 -8.447200 -5.241950 -14.314613 10.323565 -47.069343 4.617937 14.545482 32.929258 1.906984 20.669012 50.790210 0.038900 -1.273600 -3.502000 3.219684 6.226216 -1.516584 14.160858 8.498443 -41.437562 0.197973 -13.391290 25.965813 -5.067984 -17.831527 53.220131 -3.702400 -11.753500 34.865400 -0.749664 8.626825 -16.939891 -3.705900 16.669885 -7.178611 -20.810455 3.391933 -7.800956 21.107367 -8.884153 -2.486066 0.081242 -11.753848 -12.361098 -5.574800 -8.283000 -11.775700 18.315318 -4.638877 3.847478 37.781423 -72.502547 -1.197611 77.326452 -53.628646 -44.191262 -0.173480 0.170853 -77.686209 42.949155 -6.302408 -6.078300 -7.125000 0.000000 0.000000 11.571300 21.090100 -6.769300 -16.227006 2.972418 1.011317 52.323824 12.224702 30.085087 -57.067135 51.961511 -34.336653 0.756814 -0.316105 -31.170458 -26.874713 2.928627 -1.892500 7.125000 0.000000 0.000000 -0.558600 -25.859100 -0.259100 
